<svg xmlns="http://www.w3.org/2000/svg" version="1.1" xmlns:xlink="http://www.w3.org/1999/xlink" viewBox="0 0 200 200"><rect width="200" height="200" fill="url('#gradient')"></rect><defs><linearGradient id="gradient" gradientTransform="rotate(116 0.5 0.5)"><stop offset="0%" stop-color="#f72929"></stop><stop offset="100%" stop-color="#ffa98e"></stop></linearGradient></defs><g><g fill="#942dd8" transform="matrix(2.85075650595118,0,0,2.85075650595118,27.943809043709393,119.98552139781285)" stroke="#5700a3" stroke-width="0.75"><path d="M10.03-8.30L10.03-5.66L4.50-5.66L4.50 0L1.07 0L1.07-14.22L10.59-14.22L10.59-11.57L4.50-11.57L4.50-8.30L10.03-8.30ZM18.06-10.64L18.00-7.59L16.91-7.67Q15.36-7.67 14.92-6.69L14.92-6.69L14.92 0L11.63 0L11.63-10.57L14.72-10.57L14.82-9.21Q15.65-10.76 17.14-10.76L17.14-10.76Q17.67-10.76 18.06-10.64L18.06-10.64ZM28.13 0L24.84 0Q24.67-0.32 24.53-0.95L24.53-0.95Q23.62 0.20 21.99 0.20L21.99 0.20Q20.50 0.20 19.45-0.71Q18.41-1.61 18.41-2.98L18.41-2.98Q18.41-4.70 19.68-5.58Q20.95-6.46 23.37-6.46L23.37-6.46L24.38-6.46L24.38-7.01Q24.38-8.47 23.13-8.47L23.13-8.47Q21.95-8.47 21.95-7.31L21.95-7.31L18.66-7.31Q18.66-8.85 19.97-9.80Q21.27-10.76 23.29-10.76Q25.31-10.76 26.48-9.78Q27.66-8.79 27.69-7.07L27.69-7.07L27.69-2.39Q27.71-0.94 28.13-0.17L28.13-0.17L28.13 0ZM22.78-2.15L22.78-2.15Q23.40-2.15 23.80-2.41Q24.21-2.68 24.38-3.01L24.38-3.01L24.38-4.70L23.43-4.70Q21.71-4.70 21.71-3.15L21.71-3.15Q21.71-2.71 22.01-2.43Q22.31-2.15 22.78-2.15ZM29.44-10.57L32.53-10.57L32.64-9.33Q33.73-10.76 35.65-10.76L35.65-10.76Q37.30-10.76 38.12-9.78Q38.94-8.79 38.96-6.81L38.96-6.81L38.96 0L35.66 0L35.66-6.67Q35.66-7.47 35.34-7.85Q35.02-8.22 34.17-8.22L34.17-8.22Q33.20-8.22 32.73-7.46L32.73-7.46L32.73 0L29.44 0L29.44-10.57ZM49.38-8.79L44.67-2.54L49.48-2.54L49.48 0L40.51 0L40.51-1.84L45.20-8.03L40.71-8.03L40.71-10.57L49.38-10.57L49.38-8.79Z"></path></g></g></svg>